REM DIRINDEX 1\2\6,1\2\7,1\2\8,1\2\9,1\3\10,1\3\11,1\4\12,1\4\13,1\4\14,1\5\15,1\5\16,1\5\17
REM DIRNAME cjc020,folder01,folder02,folder03,folder04,folder05,folder06,folder07,folder08,folder09,folder10,folder11,folder12,folder13,folder14,folder15,folder16
TITLE ""
FILE "1900_3_057 sec10_0934_0950.mp3" MP3
  TRACK 01 AUDIO
    TITLE "0:"
    INDEX 01 00:00:00
  TRACK 02 AUDIO
    TITLE "17:cjc020_7844"
    INDEX 01 00:00:15
  TRACK 03 AUDIO
    TITLE "0:"
    INDEX 01 00:01:17
  TRACK 04 AUDIO
    TITLE "16:cjc020_7845"
    INDEX 01 00:01:26
  TRACK 05 AUDIO
    TITLE "0:"
    INDEX 01 00:02:22
  TRACK 06 AUDIO
    TITLE "17:cjc020_7846"
    INDEX 01 00:03:04
  TRACK 07 AUDIO
    TITLE "0:"
    INDEX 01 00:04:40
  TRACK 08 AUDIO
    TITLE "16:cjc020_7847"
    INDEX 01 00:04:48
  TRACK 09 AUDIO
    TITLE "0:"
    INDEX 01 00:05:52
  TRACK 10 AUDIO
    TITLE "17:cjc020_7848"
    INDEX 01 00:06:33
  TRACK 11 AUDIO
    TITLE "0:"
    INDEX 01 00:07:64
  TRACK 12 AUDIO
    TITLE "16:cjc020_7849"
    INDEX 01 00:07:70
  TRACK 13 AUDIO
    TITLE "0:"
    INDEX 01 00:09:18
  TRACK 14 AUDIO
    TITLE "17:cjc020_7850"
    INDEX 01 00:10:00
  TRACK 15 AUDIO
    TITLE "0:"
    INDEX 01 00:11:17
  TRACK 16 AUDIO
    TITLE "16:cjc020_7851"
    INDEX 01 00:11:25
  TRACK 17 AUDIO
    TITLE "0:"
    INDEX 01 00:12:60
  TRACK 18 AUDIO
    TITLE "17:cjc020_7852"
    INDEX 01 00:13:45
  TRACK 19 AUDIO
    TITLE "0:"
    INDEX 01 00:14:60
  TRACK 20 AUDIO
    TITLE "16:cjc020_7853"
    INDEX 01 00:14:64
  TRACK 21 AUDIO
    TITLE "0:"
    INDEX 01 00:15:68
  TRACK 22 AUDIO
    TITLE "17:cjc020_7854"
    INDEX 01 00:16:57
  TRACK 23 AUDIO
    TITLE "0:"
    INDEX 01 00:18:19
  TRACK 24 AUDIO
    TITLE "16:cjc020_7855"
    INDEX 01 00:18:23
  TRACK 25 AUDIO
    TITLE "0:"
    INDEX 01 00:19:24
  TRACK 26 AUDIO
    TITLE "17:cjc020_7856"
    INDEX 01 00:20:06
  TRACK 27 AUDIO
    TITLE "0:"
    INDEX 01 00:21:04
  TRACK 28 AUDIO
    TITLE "16:cjc020_7857"
    INDEX 01 00:21:08
  TRACK 29 AUDIO
    TITLE "0:"
    INDEX 01 00:22:25
  TRACK 30 AUDIO
    TITLE "17:cjc020_7858"
    INDEX 01 00:23:10
  TRACK 31 AUDIO
    TITLE "0:"
    INDEX 01 00:25:19
  TRACK 32 AUDIO
    TITLE "16:cjc020_7859"
    INDEX 01 00:25:25
  TRACK 33 AUDIO
    TITLE "0:"
    INDEX 01 00:26:36
  TRACK 34 AUDIO
    TITLE "17:cjc020_7860"
    INDEX 01 00:27:20
  TRACK 35 AUDIO
    TITLE "0:"
    INDEX 01 00:28:17
  TRACK 36 AUDIO
    TITLE "16:cjc020_7861"
    INDEX 01 00:28:23
  TRACK 37 AUDIO
    TITLE "0:"
    INDEX 01 00:29:33
  TRACK 38 AUDIO
    TITLE "17:cjc020_7862"
    INDEX 01 00:30:16
  TRACK 39 AUDIO
    TITLE "0:"
    INDEX 01 00:31:29
  TRACK 40 AUDIO
    TITLE "16:cjc020_7863"
    INDEX 01 00:31:33
  TRACK 41 AUDIO
    TITLE "0:"
    INDEX 01 00:32:64
  TRACK 42 AUDIO
    TITLE "17:cjc020_7864"
    INDEX 01 00:33:48
  TRACK 43 AUDIO
    TITLE "0:"
    INDEX 01 00:34:47
  TRACK 44 AUDIO
    TITLE "16:cjc020_7865"
    INDEX 01 00:34:55
  TRACK 45 AUDIO
    TITLE "0:"
    INDEX 01 00:35:74
  TRACK 46 AUDIO
    TITLE "17:cjc020_7866"
    INDEX 01 00:36:56
  TRACK 47 AUDIO
    TITLE "0:"
    INDEX 01 00:38:51
  TRACK 48 AUDIO
    TITLE "16:cjc020_7867"
    INDEX 01 00:38:53
  TRACK 49 AUDIO
    TITLE "0:"
    INDEX 01 00:39:68
  TRACK 50 AUDIO
    TITLE "17:cjc020_7868"
    INDEX 01 00:40:50
  TRACK 51 AUDIO
    TITLE "0:"
    INDEX 01 00:43:19
  TRACK 52 AUDIO
    TITLE "16:cjc020_7869"
    INDEX 01 00:43:29
  TRACK 53 AUDIO
    TITLE "0:"
    INDEX 01 00:44:38
  TRACK 54 AUDIO
    TITLE "17:cjc020_7870"
    INDEX 01 00:45:22
  TRACK 55 AUDIO
    TITLE "0:"
    INDEX 01 00:47:50
  TRACK 56 AUDIO
    TITLE "16:cjc020_7871"
    INDEX 01 00:47:52
  TRACK 57 AUDIO
    TITLE "0:"
    INDEX 01 00:49:10
  TRACK 58 AUDIO
    TITLE "17:cjc020_7872"
    INDEX 01 00:49:70
  TRACK 59 AUDIO
    TITLE "0:"
    INDEX 01 00:52:16
  TRACK 60 AUDIO
    TITLE "16:cjc020_7873"
    INDEX 01 00:52:20
  TRACK 61 AUDIO
    TITLE "0:"
    INDEX 01 00:53:49
  TRACK 62 AUDIO
    TITLE "17:cjc020_7874"
    INDEX 01 00:54:34
  TRACK 63 AUDIO
    TITLE "0:"
    INDEX 01 00:55:32
  TRACK 64 AUDIO
    TITLE "16:cjc020_7875"
    INDEX 01 00:55:36
  TRACK 65 AUDIO
    TITLE "0:"
    INDEX 01 00:56:49
  TRACK 66 AUDIO
    TITLE "17:cjc020_7876"
    INDEX 01 00:57:35
  TRACK 67 AUDIO
    TITLE "0:"
    INDEX 01 00:59:02
  TRACK 68 AUDIO
    TITLE "16:cjc020_7877"
    INDEX 01 00:59:08
  TRACK 69 AUDIO
    TITLE "0:"
    INDEX 01 01:00:31
